<svg id="Layer_1" data-name="Layer 1" xmlns="http://www.w3.org/2000/svg" viewBox="0 0 297.22 296.83"><defs><style>.cls-1,.cls-2{fill-rule:evenodd;}.cls-2{fill:none;stroke:#000;stroke-miterlimit:10;stroke-width:4px;}</style></defs><path class="cls-1" d="M256,402.42c-80.84,0-146.61-65.69-146.61-146.42S175.16,109.58,256,109.58,402.61,175.27,402.61,256,336.84,402.42,256,402.42ZM379.64,276c-4.28-1.35-38.76-11.62-78-5.34C318,315.65,324.69,352.26,326,359.86A125.25,125.25,0,0,0,379.64,276Zm-74.72,95.27a520.44,520.44,0,0,0-26.72-94.84l-.82.28c-70.64,24.58-96,73.5-98.25,78.1a125.2,125.2,0,0,0,125.79,16.46Zm-142-31.5c2.84-4.85,37.21-61.68,101.8-82.53,1.63-.52,3.27-1,4.93-1.48-3.14-7.11-6.57-14.22-10.15-21.23-62.54,18.69-123.23,17.91-128.7,17.8,0,1.27-.07,2.54-.07,3.82A124.47,124.47,0,0,0,163,339.81ZM133.42,230.58c5.6.07,57.19.29,115.77-15.24A797.55,797.55,0,0,0,202.76,143a125.53,125.53,0,0,0-69.34,87.57Zm93.23-96a664.86,664.86,0,0,1,46.73,73.21c44.53-16.67,63.38-42,65.63-45.18a125.19,125.19,0,0,0-112.36-28ZM352.94,177.1c-2.64,3.57-23.63,30.44-69.93,49.32,2.91,6,5.71,12,8.31,18.11q1.38,3.24,2.69,6.45c41.67-5.23,83.08,3.16,87.2,4a124.37,124.37,0,0,0-28.27-77.91Z" transform="translate(-107.39 -107.58)"/><path class="cls-2" d="M256,402.42c-80.84,0-146.61-65.69-146.61-146.42S175.16,109.58,256,109.58,402.61,175.27,402.61,256,336.84,402.42,256,402.42ZM379.64,276c-4.28-1.35-38.76-11.62-78-5.34C318,315.65,324.69,352.26,326,359.86A125.25,125.25,0,0,0,379.64,276Zm-74.72,95.27a520.44,520.44,0,0,0-26.72-94.84l-.82.28c-70.64,24.58-96,73.5-98.25,78.1a125.2,125.2,0,0,0,125.79,16.46Zm-142-31.5c2.84-4.85,37.21-61.68,101.8-82.53,1.63-.52,3.27-1,4.93-1.48-3.14-7.11-6.57-14.22-10.15-21.23-62.54,18.69-123.23,17.91-128.7,17.8,0,1.27-.07,2.54-.07,3.82A124.47,124.47,0,0,0,163,339.81ZM133.42,230.58c5.6.07,57.19.29,115.77-15.24A797.55,797.55,0,0,0,202.76,143a125.53,125.53,0,0,0-69.34,87.57Zm93.23-96a664.86,664.86,0,0,1,46.73,73.21c44.53-16.67,63.38-42,65.63-45.18a125.19,125.19,0,0,0-112.36-28ZM352.94,177.1c-2.64,3.57-23.63,30.44-69.93,49.32,2.91,6,5.71,12,8.31,18.11q1.38,3.24,2.69,6.45c41.67-5.23,83.08,3.16,87.2,4a124.37,124.37,0,0,0-28.27-77.91Z" transform="translate(-107.39 -107.58)"/></svg>